<svg width="24" height="29" viewBox="0 0 24 29" fill="none" xmlns="http://www.w3.org/2000/svg">
<path d="M24 12.1134C24 14.2825 23.4254 16.4095 22.3383 18.2669C21.2836 20.0698 19.7752 21.5742 17.9781 22.6183C17.8584 22.6884 17.7039 22.6461 17.6357 22.5252C17.5663 22.4044 17.6082 22.2485 17.7279 22.1796C21.287 20.112 23.4982 16.2548 23.4982 12.1134C23.4982 5.71343 18.3408 0.506316 12.0005 0.506316C5.66012 0.506316 0.502754 5.71343 0.502754 12.1134C0.502754 16.4082 2.83604 20.3331 6.5915 22.3572C6.71361 22.4237 6.7603 22.5771 6.69445 22.7004C6.64896 22.7862 6.56276 22.8345 6.47298 22.8345C6.43347 22.8345 6.39277 22.8249 6.35446 22.8043C2.43495 20.6908 0 16.5943 0 12.1132C0.00119709 5.43418 5.38354 0 12.0003 0C18.6171 0 23.9995 5.43418 23.9995 12.1132L24 12.1134ZM17.5892 24.9131C17.6586 25.0339 17.6167 25.1898 17.497 25.2587L16.1131 26.0647C16.0747 26.0877 16.0316 26.0986 15.9873 26.0986C15.9658 26.0986 15.9431 26.0962 15.9227 26.0901C15.8581 26.0732 15.8042 26.0297 15.7707 25.9717L15.7575 25.9475C15.5588 26.2907 15.2642 26.5795 15.0093 26.7668C15.0164 26.8466 15.0033 26.9336 14.965 27.0218C14.7794 27.4581 14.018 28.0067 13.5799 28.2943C13.2494 28.5118 12.4677 29 12.0966 29C12.0786 29 12.0619 28.9988 12.0463 28.9964C11.6045 28.9311 10.1153 27.9571 9.13 27.162C8.71338 26.826 8.56614 26.5384 8.43565 26.2847C8.40931 26.2327 8.38178 26.1807 8.35304 26.1288L8.23093 26.3415C8.19741 26.3995 8.14234 26.4418 8.07889 26.4599C8.05734 26.4659 8.0358 26.4683 8.01424 26.4683C7.96995 26.4683 7.92685 26.4563 7.88854 26.4345L6.50462 25.6285C6.38491 25.5584 6.343 25.4037 6.41244 25.2829L8.61523 21.4329C8.68466 21.3121 8.8379 21.2698 8.95762 21.3399L10.3415 22.1459C10.399 22.1797 10.4409 22.2353 10.4589 22.2994C10.4756 22.3646 10.4672 22.4335 10.4337 22.4915L10.3368 22.6607C10.7139 22.6631 11.1341 22.7247 11.4489 22.8299C11.4872 22.8021 11.5231 22.7755 11.5567 22.7537C12.1241 22.3393 12.8843 22.1604 13.6386 22.245L13.5679 22.1205C13.5344 22.0625 13.526 21.9936 13.5428 21.9284C13.5595 21.8631 13.6026 21.8088 13.6601 21.7749L15.044 20.9689C15.1015 20.935 15.1697 20.9266 15.2344 20.9435C15.299 20.9604 15.3529 21.0039 15.3864 21.0619L17.5892 24.9131ZM9.87333 22.46L8.92396 21.9065L6.97257 25.319L7.92194 25.8725L9.87333 22.46ZM12.1097 28.4962C12.1527 28.4925 12.2365 28.4635 12.3515 28.4128L11.5075 27.8062C11.3949 27.7252 11.3686 27.5669 11.4488 27.4533C11.529 27.3397 11.6859 27.3119 11.7984 27.3941L12.8531 28.153C12.9405 28.1034 13.0315 28.0479 13.1272 27.9874L12.2162 27.3325C12.1036 27.2515 12.0773 27.0932 12.1575 26.9796C12.2377 26.866 12.3946 26.8382 12.5071 26.9204L13.575 27.6878C13.6827 27.6116 13.7797 27.5391 13.8671 27.4702L13.0195 26.8612C12.9069 26.7802 12.8806 26.6219 12.9608 26.5083C13.041 26.3947 13.1979 26.3669 13.3104 26.4491L14.2586 27.1307C14.3855 27.005 14.4609 26.9083 14.492 26.8479L11.9947 25.0522C11.8379 25.4147 11.535 25.8002 11.195 25.9645C11.0717 26.0237 10.9472 26.0539 10.8251 26.0539C10.6826 26.0539 10.5461 26.0128 10.4216 25.9319C10.108 25.7265 9.94158 25.4316 9.93919 25.0775C9.9356 24.4347 10.4791 23.7229 10.9807 23.2359C10.6683 23.1755 10.3055 23.1537 10.0362 23.1851L8.63189 25.6395C8.73964 25.7905 8.81147 25.9295 8.87731 26.0564C8.99942 26.2957 9.10597 26.5023 9.43877 26.7706C10.5988 27.6998 11.8643 28.4466 12.1097 28.4962ZM15.4475 25.4086L13.9666 22.8202C13.2148 22.6256 12.4103 22.7549 11.8476 23.1682C11.8452 23.1706 11.8416 23.1718 11.8392 23.1742C11.2538 23.5682 10.4397 24.4818 10.4433 25.0727C10.4445 25.2551 10.5247 25.3929 10.6971 25.5053C10.7534 25.5427 10.836 25.5754 10.9796 25.5065C11.2789 25.3615 11.5794 24.8866 11.607 24.6135C11.607 24.6086 11.6094 24.605 11.6094 24.6002C11.6105 24.5917 11.6117 24.582 11.6153 24.5736C11.6177 24.5651 11.6201 24.5579 11.6225 24.5494C11.6249 24.5422 11.6285 24.5349 11.6321 24.5277C11.6357 24.5192 11.6405 24.5107 11.6453 24.5035C11.6477 24.4999 11.6489 24.495 11.6524 24.4914C11.6536 24.489 11.656 24.4878 11.6584 24.4854C11.6644 24.4781 11.6704 24.4721 11.6764 24.4648C11.6824 24.4588 11.6872 24.4527 11.6932 24.4479C11.6991 24.4431 11.7051 24.4382 11.7111 24.4346C11.7183 24.4298 11.7255 24.4237 11.7327 24.4201C11.7386 24.4165 11.7446 24.4141 11.7518 24.4104C11.7602 24.4068 11.7686 24.4032 11.777 24.3996C11.7829 24.3972 11.7901 24.3959 11.7961 24.3947C11.8057 24.3923 11.8141 24.3899 11.8236 24.3887C11.8296 24.3875 11.8368 24.3875 11.8428 24.3875C11.8536 24.3863 11.8632 24.3863 11.8727 24.3875H11.8811C11.8847 24.3875 11.8895 24.3899 11.8931 24.3899C11.9027 24.3911 11.9122 24.3935 11.9218 24.3959C11.929 24.3984 11.9362 24.4008 11.9434 24.4032C11.9517 24.4056 11.9589 24.4092 11.9661 24.4129C11.9745 24.4165 11.9817 24.4213 11.9889 24.4262C11.9924 24.4286 11.9972 24.4298 12.0008 24.4334L14.6957 26.3705C14.9866 26.1639 15.3397 25.7929 15.4475 25.4086ZM17.0289 24.947L15.0776 21.5357L14.1282 22.0892L16.0796 25.5005L17.0289 24.947ZM10.4373 4.44586C10.3188 4.4229 10.2338 4.31897 10.2338 4.19692C10.2338 4.07487 10.3188 3.97094 10.4373 3.94798C11.4537 3.75101 11.5518 3.65192 11.747 2.62597C11.7697 2.50634 11.8727 2.42054 11.9936 2.42054C12.1145 2.42054 12.2175 2.50634 12.2402 2.62597C12.4353 3.65193 12.5335 3.75102 13.5499 3.94798C13.6684 3.97094 13.7534 4.07487 13.7534 4.19692C13.7534 4.31897 13.6684 4.4229 13.5499 4.44586C12.5335 4.64283 12.4353 4.74192 12.2402 5.76787C12.2175 5.8875 12.1145 5.9733 11.9936 5.9733C11.8727 5.9733 11.7697 5.8875 11.747 5.76787C11.5518 4.74191 11.4537 4.64283 10.4373 4.44586ZM11.4046 4.19692C11.6859 4.32864 11.8631 4.50869 11.9936 4.79148C12.1241 4.50749 12.3025 4.32865 12.5826 4.19692C12.3013 4.0652 12.1241 3.88515 11.9936 3.60237C11.8631 3.88514 11.6859 4.0652 11.4046 4.19692ZM15.9622 9.6905C15.8436 9.66754 15.7586 9.56361 15.7586 9.44156C15.7586 9.31951 15.8436 9.21558 15.9622 9.19262C16.9786 8.99565 17.0767 8.89656 17.2719 7.87061C17.2946 7.75098 17.3976 7.66518 17.5185 7.66518C17.6394 7.66518 17.7423 7.75098 17.7651 7.87061C17.9602 8.89657 18.0584 8.99566 19.0748 9.19262C19.1933 9.21558 19.2783 9.31951 19.2783 9.44156C19.2783 9.56361 19.1933 9.66754 19.0748 9.6905C18.0584 9.88747 17.9602 9.98656 17.7651 11.0125C17.7423 11.1321 17.6394 11.2179 17.5185 11.2179C17.3976 11.2179 17.2946 11.1321 17.2719 11.0125C17.0767 9.98655 16.9786 9.88747 15.9622 9.6905ZM16.9295 9.44277C17.2108 9.57449 17.388 9.75454 17.5185 10.0373C17.649 9.75334 17.8273 9.57449 18.1075 9.44277C17.8262 9.31105 17.649 9.131 17.5185 8.84822C17.388 9.13099 17.2096 9.31104 16.9295 9.44277ZM6.23624 11.0137C6.0411 9.98777 5.94293 9.88868 4.92655 9.69171C4.80803 9.66875 4.72303 9.56482 4.72303 9.44277C4.72303 9.32072 4.80803 9.2168 4.92655 9.19384C5.94294 8.99686 6.0411 8.89777 6.23624 7.87183C6.25898 7.75219 6.36194 7.66639 6.48285 7.66639C6.60377 7.66639 6.70673 7.75219 6.72947 7.87183C6.92461 8.89778 7.02278 8.99687 8.03916 9.19384C8.15768 9.2168 8.24268 9.32072 8.24268 9.44277C8.24268 9.56482 8.15768 9.66875 8.03916 9.69171C7.02277 9.88869 6.92461 9.98777 6.72947 11.0137C6.70673 11.1334 6.60377 11.2192 6.48285 11.2192C6.36194 11.2179 6.25898 11.1321 6.23624 11.0137ZM5.89384 9.44277C6.17518 9.57449 6.35236 9.75454 6.48286 10.0373C6.61335 9.75334 6.79172 9.57449 7.07187 9.44277C6.79054 9.31105 6.61335 9.131 6.48286 8.84822C6.35237 9.13099 6.17399 9.31104 5.89384 9.44277ZM6.22545 19.3218V19.3109C6.23263 16.1001 8.82451 13.4913 12.0019 13.4913C15.1865 13.4913 17.7783 16.1063 17.7783 19.3208C17.7783 19.3873 17.752 19.4538 17.7053 19.5009C17.6586 19.548 17.594 19.5758 17.5281 19.5758L6.47694 19.5746C6.33807 19.5746 6.22545 19.462 6.22545 19.3218ZM6.73303 19.068H17.2718C17.1401 16.2488 14.826 13.9961 12.0032 13.9961C9.18146 13.9961 6.86451 16.2498 6.73303 19.068ZM10.5327 7.82349C11.3767 7.21081 12.6086 7.21443 13.4598 7.83316C14.3637 8.49055 14.6414 9.65426 14.22 11.0257V11.0269C13.8692 12.1447 13.0001 12.8662 12.0064 12.8662C11.0212 12.8662 10.1317 12.1278 9.79285 11.0269C9.36547 9.64207 9.63602 8.47469 10.5327 7.82349ZM10.2693 10.8784C10.5423 11.7654 11.2391 12.3612 12.004 12.3612C12.775 12.3612 13.4562 11.7787 13.74 10.876C14.2236 9.30142 13.5879 8.55098 13.1665 8.24404C12.8241 7.9951 12.4039 7.86943 11.9849 7.86943C11.5719 7.86943 11.1612 7.99149 10.826 8.23438C10.1053 8.75763 9.90779 9.69656 10.2693 10.8784Z" fill="black"/>
</svg>
